/* XPM */
static char * pl48_xpm[] = {
"48 48 3 1",
"o	c #FFFFFF",
".	c #E40046",
"X	c #003087",
"oooooooooooooooooooooooooooooooooooooooooooooooo",
"Xooooooooooooooooooooooooooooooooooooooooooooooo",
"XXoooooooooooooooooooooooooooooooooooooooooooooo",
"XXXooooooooooooooooooooooooooooooooooooooooooooo",
"XXXXoooooooooooooooooooooooooooooooooooooooooooo",
"XXXXXooooooooooooooooooooooooooooooooooooooooooo",
"XXXXXXoooooooooooooooooooooooooooooooooooooooooo",
"XXXXXXXooooooooooooooooooooooooooooooooooooooooo",
"XXXXXXXXoooooooooooooooooooooooooooooooooooooooo",
"XXXXXXXXXooooooooooooooooooooooooooooooooooooooo",
"XXXXXXXXXXoooooooooooooooooooooooooooooooooooooo",
"XXXXXXXXXXXooooooooooooooooooooooooooooooooooooo",
"XXXXXXXXXXXXoooooooooooooooooooooooooooooooooooo",
"XXXXXXXXXXXXXooooooooooooooooooooooooooooooooooo",
"XXXXXXXXXXXXXXoooooooooooooooooooooooooooooooooo",
"XXXXXXXXXXXXXXXooooooooooooooooooooooooooooooooo",
"XXXXXXXXXXXXXXXXoooooooooooooooooooooooooooooooo",
"XXXXXXXXXXXXXXXXXooooooooooooooooooooooooooooooo",
"XXXXXXXXXXXXXXXXXXoooooooooooooooooooooooooooooo",
"XXXXXXXXXXXXXXXXXXXooooooooooooooooooooooooooooo",
"XXXXXXXXXXXXXXXXXXXXoooooooooooooooooooooooooooo",
"XXXXXXXXXXXXXXXXXXXXXooooooooooooooooooooooooooo",
"XXXXXXXXXXXXXXXXXXXXXXoooooooooooooooooooooooooo",
"XXXXXXXXXXXXXXXXXXXXXXXooooooooooooooooooooooooo",
"XXXXXXXXXXXXXXXXXXXXXXX.........................",
"XXXXXXXXXXXXXXXXXXXXXX..........................",
"XXXXXXXXXXXXXXXXXXXXX...........................",
"XXXXXXXXXXXXXXXXXXXX............................",
"XXXXXXXXXXXXXXXXXXX.............................",
"XXXXXXXXXXXXXXXXXX..............................",
"XXXXXXXXXXXXXXXXX...............................",
"XXXXXXXXXXXXXXXX................................",
"XXXXXXXXXXXXXXX.................................",
"XXXXXXXXXXXXXX..................................",
"XXXXXXXXXXXXX...................................",
"XXXXXXXXXXXX....................................",
"XXXXXXXXXXX.....................................",
"XXXXXXXXXX......................................",
"XXXXXXXXX.......................................",
"XXXXXXXX........................................",
"XXXXXXX.........................................",
"XXXXXX..........................................",
"XXXXX...........................................",
"XXXX............................................",
"XXX.............................................",
"XX..............................................",
"X...............................................",
"................................................"};
